Coordinates
version=1
nRows=10
nColumns=40
inDegrees=yes

Units are S.I. units (second, meters, Newtons, ...)
If the header above contains a line with 'inDegrees', this indicates whether rotational values are in degrees (yes) or radians (no).

endheader
time	pelvis_tilt	pelvis_list	pelvis_rotation	pelvis_tx	pelvis_ty	pelvis_tz	hip_flexion_r	hip_adduction_r	hip_rotation_r	knee_angle_r	knee_angle_r_beta	ankle_angle_r	subtalar_angle_r	mtp_angle_r	hip_flexion_l	hip_adduction_l	hip_rotation_l	knee_angle_l	knee_angle_l_beta	ankle_angle_l	subtalar_angle_l	mtp_angle_l	lumbar_extension	lumbar_bending	lumbar_rotation	arm_flex_r	arm_add_r	arm_rot_r	elbow_flex_r	pro_sup_r	wrist_flex_r	wrist_dev_r	arm_flex_l	arm_add_l	arm_rot_l	elbow_flex_l	pro_sup_l	wrist_flex_l	wrist_dev_l
      9.52500000	     19.69924917	      3.10561202	   -177.17152038	      0.31408921	      0.65392022	     -0.92270005	     64.42397453	    -45.43418088	     -9.51842689	     53.67174114	      0.93674860	     -2.85997009	      0.00000000	      0.00000000	     73.32097898	    -45.42801706	     -2.11094170	     57.11901571	      0.99691489	     -1.61698596	      0.00000000	      0.00000000	    -39.94678541	     -0.64395242	      0.63738600	     52.67624959	    -12.64020065	     66.20969661	     11.73363199	     83.70276935	      0.00000000	      0.00000000	     54.05029424	    -14.80528145	     78.99003078	     14.12848973	     59.37604514	      0.00000000	      0.00000000
      9.53000000	     19.70266007	      3.07926352	   -177.14259745	      0.31378714	      0.65574430	     -0.92269954	     64.01814390	    -45.34782891	     -9.76208479	     53.23987408	      0.92921110	     -2.94660332	      0.00000000	      0.00000000	     72.87778305	    -45.33455957	     -2.44525714	     56.70880083	      0.98975529	     -1.73058559	      0.00000000	      0.00000000	    -39.77798062	     -0.64911284	      0.59814127	     52.51057158	    -12.62412881	     66.16294275	     11.70184951	     83.72833462	      0.00000000	      0.00000000	     53.87974602	    -14.80418635	     78.89338329	     14.10003048	     59.56963861	      0.00000000	      0.00000000
      9.53500000	     19.69120142	      3.06985238	   -177.12391574	      0.31348305	      0.65768804	     -0.92268009	     63.57086335	    -45.24770329	    -10.03521020	     52.78797088	      0.92132390	     -3.09426742	      0.00000000	      0.00000000	     72.40404687	    -45.24485511	     -2.76604428	     56.26320577	      0.98197819	     -1.87440561	      0.00000000	      0.00000000	    -39.62833074	     -0.64213404	      0.57956570	     52.33725508	    -12.58566833	     65.87629583	     11.63561929	     83.85367704	      0.00000000	      0.00000000	     53.69414152	    -14.76537562	     78.48971236	     14.11673986	     59.77131327	      0.00000000	      0.00000000
      9.54000000	     19.65979612	      3.03918738	   -177.09585781	      0.31317219	      0.65962732	     -0.92269752	     63.13294528	    -45.17568529	    -10.30489273	     52.35680398	      0.91379862	     -3.26593827	      0.00000000	      0.00000000	     71.91302583	    -45.15401216	     -3.11235251	     55.84048477	      0.97460032	     -2.03350320	      0.00000000	      0.00000000	    -39.50336535	     -0.65002089	      0.51090687	     52.20027814	    -12.52869912	     65.75888976	     11.59598851	     83.77407938	      0.00000000	      0.00000000	     53.50364514	    -14.79349945	     78.19174007	     14.12009564	     59.81169388	      0.00000000	      0.00000000
      9.54500000	     19.88462850	      3.22229314	   -176.90696916	      0.31309376	      0.66103514	     -0.92237296	     62.72101738	    -45.12671399	    -10.87714489	     51.91072924	      0.90601314	     -3.50886258	      0.00000000	      0.00000000	     72.05374022	    -44.86768762	     -2.87935007	     55.42966782	      0.96743021	     -2.30992244	      0.00000000	      0.00000000	    -39.05850845	     -0.35276271	      0.49162952	     51.69901801	    -12.43269056	     64.24458348	     11.57940920	     81.55522745	      0.00000000	      0.00000000	     53.02659311	    -14.39343828	     76.22916737	     13.75629566	     58.97437830	      0.00000000	      0.00000000
      9.55000000	     19.66109886	      2.97803600	   -177.07562589	      0.31251085	      0.66347402	     -0.92274020	     62.30265467	    -44.96804599	    -10.79432621	     51.43460144	      0.89770314	     -3.53017365	      0.00000000	      0.00000000	     70.94097964	    -44.96685642	     -3.81433623	     54.93351837	      0.95877077	     -2.32364581	      0.00000000	      0.00000000	    -39.16660212	     -0.69684788	      0.47419571	     51.87182236	    -12.54212321	     65.58836976	     11.59074525	     83.88694850	      0.00000000	      0.00000000	     53.16313215	    -14.74900002	     77.98404036	     14.08502998	     59.93113526	      0.00000000	      0.00000000
      9.55500000	     19.71730393	      2.98066760	   -177.04693758	      0.31224921	      0.66523315	     -0.92273510	     61.93154533	    -44.84665962	    -11.04265468	     50.98320239	      0.88982474	     -3.62285779	      0.00000000	      0.00000000	     70.58674517	    -44.84764425	     -4.05593391	     54.50456693	      0.95128415	     -2.45118919	      0.00000000	      0.00000000	    -38.91983716	     -0.67476375	      0.46969911	     51.71282796	    -12.62629001	     65.86227609	     11.68184842	     83.93742586	      0.00000000	      0.00000000	     53.00835301	    -14.71510170	     77.99592182	     14.08380919	     60.14641138	      0.00000000	      0.00000000
      9.56000000	     19.77036168	      2.98152066	   -177.03925764	      0.31199369	      0.66705127	     -0.92273381	     61.56516216	    -44.71168645	    -11.27939101	     50.51915950	      0.88172567	     -3.75923192	      0.00000000	      0.00000000	     70.21989138	    -44.74783153	     -4.32393638	     54.07550231	      0.94379556	     -2.59062599	      0.00000000	      0.00000000	    -38.68843614	     -0.67895356	      0.46016857	     51.55896890	    -12.66540944	     65.94486023	     11.72502590	     83.98994224	      0.00000000	      0.00000000	     52.83970330	    -14.70366464	     78.09184035	     14.02238394	     60.33088214	      0.00000000	      0.00000000
      9.56500000	     19.74406535	      3.01492896	   -176.99918925	      0.31158740	      0.66903824	     -0.92274019	     61.01599098	    -44.61508318	    -11.70390285	     50.03926429	      0.87334992	     -3.82502992	      0.00000000	      0.00000000	     69.78265476	    -44.64696019	     -4.55051675	     53.61434926	      0.93574692	     -2.68825889	      0.00000000	      0.00000000	    -38.52663569	     -0.60935668	      0.41949015	     51.28909729	    -12.38298979	     65.30579290	     11.33995894	     82.66415315	      0.00000000	      0.00000000	     52.50703776	    -14.57927742	     76.92108711	     13.94756237	     59.91289997	      0.00000000	      0.00000000
      9.57000000	     19.67783412	      2.94547682	   -177.02787850	      0.31113165	      0.67112129	     -0.92285892	     60.57401508	    -44.49731643	    -11.90599688	     49.56590673	      0.86508827	     -4.06815451	      0.00000000	      0.00000000	     69.14034393	    -44.59253489	     -5.02478631	     53.13366412	      0.92735738	     -2.89139564	      0.00000000	      0.00000000	    -38.42659318	     -0.70352933	      0.42123990	     51.23263920	    -12.63849189	     66.06963399	     11.68321441	     83.74478755	      0.00000000	      0.00000000	     52.48631868	    -14.72336400	     77.90859672	     14.06432075	     60.40203458	      0.00000000	      0.00000000
